<svg width="18" height="18" viewBox="0 0 18 18" fill="none" xmlns="http://www.w3.org/2000/svg">
<path d="M8.15698 2.68433H2.59044C2.16863 2.68433 1.76409 2.85189 1.46583 3.15016C1.16756 3.44842 1 3.85296 1 4.27477V15.4079C1 15.8297 1.16756 16.2342 1.46583 16.5325C1.76409 16.8307 2.16863 16.9983 2.59044 16.9983H13.7235C14.1453 16.9983 14.5499 16.8307 14.8481 16.5325C15.1464 16.2342 15.314 15.8297 15.314 15.4079V9.84131" stroke="#202124" stroke-width="1.5" stroke-linecap="round" stroke-linejoin="round"/>
<path d="M14.1154 1.49287C14.4318 1.17651 14.8609 0.998779 15.3083 0.998779C15.7557 0.998779 16.1847 1.17651 16.5011 1.49287C16.8175 1.80922 16.9952 2.2383 16.9952 2.6857C16.9952 3.13309 16.8175 3.56217 16.5011 3.87853L8.94651 11.4331L5.76562 12.2283L6.56085 9.04746L14.1154 1.49287Z" stroke="#202124" stroke-width="1.5" stroke-linecap="round" stroke-linejoin="round"/>
</svg>
